<mxfile host="app.diagrams.net" modified="2022-07-01T06:24:56.604Z" agent="5.0 (Macintosh; Intel Mac OS X 10_15_7) AppleWebKit/537.36 (KHTML, like Gecko) Chrome/103.0.0.0 Safari/537.36" etag="ICcQUzlGJIQ6k892Trxl" version="20.0.4" type="github">
  <diagram id="XGdQ6YxJnlsyfH55UFK4" name="Page-1">
    <mxGraphModel dx="1645" dy="1014" grid="1" gridSize="10" guides="1" tooltips="1" connect="1" arrows="1" fold="1" page="1" pageScale="1" pageWidth="827" pageHeight="1169" math="0" shadow="0">
      <root>
        <mxCell id="0" />
        <mxCell id="1" parent="0" />
        <mxCell id="3M25qD8F63HRG9UIUaZJ-57" value="Mock平台服务" style="verticalAlign=top;align=left;spacingTop=8;spacingLeft=2;spacingRight=12;shape=cube;size=10;direction=south;fontStyle=4;html=1;rounded=0;glass=0;sketch=0;fontSize=16;fillColor=#FFFFFF;" vertex="1" parent="1">
          <mxGeometry x="740" y="380" width="490" height="280" as="geometry" />
        </mxCell>
        <mxCell id="3M25qD8F63HRG9UIUaZJ-54" value="回放平台服务" style="verticalAlign=top;align=left;spacingTop=8;spacingLeft=2;spacingRight=12;shape=cube;size=10;direction=south;fontStyle=4;html=1;rounded=0;glass=0;sketch=0;fontSize=16;fillColor=#FFFFFF;" vertex="1" parent="1">
          <mxGeometry x="50" y="380" width="560" height="280" as="geometry" />
        </mxCell>
        <mxCell id="3M25qD8F63HRG9UIUaZJ-24" value="&lt;table border=&quot;1&quot; width=&quot;100%&quot; height=&quot;100%&quot; cellpadding=&quot;4&quot; style=&quot;width:100%;height:100%;border-collapse:collapse;&quot;&gt;&lt;tbody&gt;&lt;tr style=&quot;background-color:#A7C942;color:#ffffff;border:1px solid #98bf21;&quot;&gt;&lt;th&gt;序号&lt;/th&gt;&lt;th&gt;LogToken&lt;/th&gt;&lt;th&gt;请求名称&lt;/th&gt;&lt;/tr&gt;&lt;tr style=&quot;border:1px solid #98bf21;&quot;&gt;&lt;td&gt;1&lt;/td&gt;&lt;td&gt;3xsc7&lt;/td&gt;&lt;td&gt;A&lt;/td&gt;&lt;/tr&gt;&lt;tr style=&quot;background-color:#EAF2D3;border:1px solid #98bf21;&quot;&gt;&lt;td&gt;2&lt;/td&gt;&lt;td&gt;s132d&lt;/td&gt;&lt;td&gt;B&lt;/td&gt;&lt;/tr&gt;&lt;tr style=&quot;border:1px solid #98bf21;&quot;&gt;&lt;td&gt;3&lt;/td&gt;&lt;td&gt;jrr41g&lt;/td&gt;&lt;td&gt;A&lt;/td&gt;&lt;/tr&gt;&lt;tr style=&quot;background-color:#EAF2D3;border:1px solid #98bf21;&quot;&gt;&lt;td&gt;4&lt;/td&gt;&lt;td&gt;84rc1&lt;/td&gt;&lt;td&gt;C&lt;/td&gt;&lt;/tr&gt;&lt;/tbody&gt;&lt;/table&gt;" style="text;html=1;strokeColor=#c0c0c0;fillColor=#ffffff;overflow=fill;rounded=0;fontSize=18;align=center;" vertex="1" parent="1">
          <mxGeometry x="190" y="440" width="320" height="170" as="geometry" />
        </mxCell>
        <mxCell id="3M25qD8F63HRG9UIUaZJ-39" value="回放App" style="html=1;fontSize=18;" vertex="1" parent="1">
          <mxGeometry x="40" y="70" width="110" height="50" as="geometry" />
        </mxCell>
        <mxCell id="3M25qD8F63HRG9UIUaZJ-42" value="" style="curved=1;endArrow=classic;html=1;rounded=0;fontSize=18;strokeColor=default;edgeStyle=orthogonalEdgeStyle;exitX=0.5;exitY=1;exitDx=0;exitDy=0;" edge="1" parent="1" source="3M25qD8F63HRG9UIUaZJ-39" target="3M25qD8F63HRG9UIUaZJ-54">
          <mxGeometry width="50" height="50" relative="1" as="geometry">
            <mxPoint x="120" y="350" as="sourcePoint" />
            <mxPoint x="210" y="515" as="targetPoint" />
            <Array as="points">
              <mxPoint x="100" y="120" />
            </Array>
          </mxGeometry>
        </mxCell>
        <mxCell id="3M25qD8F63HRG9UIUaZJ-44" value="LogToken队列" style="text;html=1;strokeColor=none;fillColor=none;align=center;verticalAlign=middle;whiteSpace=wrap;rounded=0;fontSize=18;" vertex="1" parent="1">
          <mxGeometry x="290" y="610" width="180" height="40" as="geometry" />
        </mxCell>
        <mxCell id="3M25qD8F63HRG9UIUaZJ-46" value="" style="curved=1;endArrow=classic;html=1;rounded=1;fontSize=18;strokeColor=default;edgeStyle=orthogonalEdgeStyle;entryX=1;entryY=0.75;entryDx=0;entryDy=0;exitX=0;exitY=0.379;exitDx=0;exitDy=0;exitPerimeter=0;" edge="1" parent="1" source="3M25qD8F63HRG9UIUaZJ-54" target="3M25qD8F63HRG9UIUaZJ-39">
          <mxGeometry width="50" height="50" relative="1" as="geometry">
            <mxPoint x="420" y="430" as="sourcePoint" />
            <mxPoint x="360" y="290" as="targetPoint" />
            <Array as="points">
              <mxPoint x="400" y="380" />
              <mxPoint x="400" y="108" />
            </Array>
          </mxGeometry>
        </mxCell>
        <mxCell id="3M25qD8F63HRG9UIUaZJ-31" value="1.获取LogToken" style="swimlane;fontStyle=1;align=center;verticalAlign=middle;childLayout=stackLayout;horizontal=1;startSize=26;horizontalStack=0;resizeParent=1;resizeParentMax=0;resizeLast=0;collapsible=1;marginBottom=0;fontSize=16;fillColor=#FFFFFF;rounded=0;glass=0;sketch=0;swimlaneFillColor=default;fontColor=#FF0000;" vertex="1" parent="1">
          <mxGeometry x="30" y="220" width="150" height="52" as="geometry" />
        </mxCell>
        <mxCell id="3M25qD8F63HRG9UIUaZJ-32" value=" 请求名称: A" style="text;strokeColor=none;fillColor=none;align=left;verticalAlign=middle;spacingLeft=4;spacingRight=4;overflow=hidden;rotatable=0;points=[[0,0.5],[1,0.5]];portConstraint=eastwest;fontSize=16;" vertex="1" parent="3M25qD8F63HRG9UIUaZJ-31">
          <mxGeometry y="26" width="150" height="26" as="geometry" />
        </mxCell>
        <mxCell id="3M25qD8F63HRG9UIUaZJ-47" value="&lt;font color=&quot;#ff0000&quot; style=&quot;font-size: 16px;&quot;&gt;&lt;b&gt;&lt;font style=&quot;font-size: 16px;&quot;&gt;2. 返回&lt;/font&gt;LogToken=3xsc7&lt;/b&gt;&lt;/font&gt;" style="rounded=0;whiteSpace=wrap;html=1;glass=0;sketch=0;fontSize=14;fillColor=#FFFFFF;" vertex="1" parent="1">
          <mxGeometry x="310" y="216" width="180" height="60" as="geometry" />
        </mxCell>
        <mxCell id="3M25qD8F63HRG9UIUaZJ-52" value="&lt;table border=&quot;1&quot; width=&quot;100%&quot; height=&quot;100%&quot; cellpadding=&quot;4&quot; style=&quot;width:100%;height:100%;border-collapse:collapse;&quot;&gt;&lt;tbody&gt;&lt;tr style=&quot;background-color:#A7C942;color:#ffffff;border:1px solid #98bf21;&quot;&gt;&lt;th align=&quot;left&quot;&gt;请求服务&lt;/th&gt;&lt;th align=&quot;left&quot;&gt;响应&lt;/th&gt;&lt;th align=&quot;left&quot;&gt;匹配规则&lt;/th&gt;&lt;/tr&gt;&lt;tr style=&quot;border:1px solid #98bf21;&quot;&gt;&lt;td&gt;A&lt;/td&gt;&lt;td&gt;abc&lt;/td&gt;&lt;td&gt;heder.LogToken=3xsc7&lt;/td&gt;&lt;/tr&gt;&lt;tr style=&quot;background-color:#EAF2D3;border:1px solid #98bf21;&quot;&gt;&lt;td&gt;B&lt;/td&gt;&lt;td&gt;xxxx&lt;/td&gt;&lt;td&gt;&lt;span style=&quot;background-color: rgb(248, 249, 250);&quot;&gt;heder.LogToken=xxxx&lt;/span&gt;&lt;br&gt;&lt;/td&gt;&lt;/tr&gt;&lt;tr style=&quot;border:1px solid #98bf21;&quot;&gt;&lt;td&gt;A&lt;/td&gt;&lt;td&gt;xxxx&lt;/td&gt;&lt;td&gt;heder.LogToken=xxxx&lt;/td&gt;&lt;/tr&gt;&lt;tr style=&quot;background-color:#EAF2D3;border:1px solid #98bf21;&quot;&gt;&lt;td&gt;C&lt;/td&gt;&lt;td&gt;xxxx&lt;/td&gt;&lt;td&gt;&lt;span style=&quot;background-color: rgb(248, 249, 250);&quot;&gt;heder.LogToken=xxxx&lt;/span&gt;&lt;br&gt;&lt;/td&gt;&lt;/tr&gt;&lt;/tbody&gt;&lt;/table&gt;" style="text;html=1;strokeColor=#c0c0c0;fillColor=#ffffff;overflow=fill;rounded=0;glass=0;sketch=0;fontSize=14;" vertex="1" parent="1">
          <mxGeometry x="840" y="450" width="280" height="160" as="geometry" />
        </mxCell>
        <mxCell id="3M25qD8F63HRG9UIUaZJ-53" value="" style="endArrow=classic;html=1;rounded=1;fontSize=16;strokeColor=default;curved=1;exitX=1;exitY=0.5;exitDx=0;exitDy=0;entryX=0;entryY=0;entryDx=145;entryDy=490;edgeStyle=orthogonalEdgeStyle;entryPerimeter=0;" edge="1" parent="1" source="3M25qD8F63HRG9UIUaZJ-39" target="3M25qD8F63HRG9UIUaZJ-57">
          <mxGeometry width="50" height="50" relative="1" as="geometry">
            <mxPoint x="360" y="110" as="sourcePoint" />
            <mxPoint x="410" y="60" as="targetPoint" />
            <Array as="points">
              <mxPoint x="150" y="100" />
              <mxPoint x="680" y="100" />
              <mxPoint x="680" y="525" />
            </Array>
          </mxGeometry>
        </mxCell>
        <mxCell id="3M25qD8F63HRG9UIUaZJ-60" value="3.发起请求" style="swimlane;fontStyle=1;align=center;verticalAlign=middle;childLayout=stackLayout;horizontal=1;startSize=26;horizontalStack=0;resizeParent=1;resizeParentMax=0;resizeLast=0;collapsible=1;marginBottom=0;fontSize=16;fillColor=#FFFFFF;rounded=0;glass=0;sketch=0;swimlaneFillColor=default;fontColor=#FF0000;" vertex="1" parent="1">
          <mxGeometry x="560" y="216" width="180" height="86" as="geometry" />
        </mxCell>
        <mxCell id="3M25qD8F63HRG9UIUaZJ-61" value=" 请求名称: A" style="text;strokeColor=none;fillColor=none;align=left;verticalAlign=middle;spacingLeft=4;spacingRight=4;overflow=hidden;rotatable=0;points=[[0,0.5],[1,0.5]];portConstraint=eastwest;fontSize=16;" vertex="1" parent="3M25qD8F63HRG9UIUaZJ-60">
          <mxGeometry y="26" width="180" height="26" as="geometry" />
        </mxCell>
        <mxCell id="3M25qD8F63HRG9UIUaZJ-62" value="" style="line;strokeWidth=1;fillColor=none;align=left;verticalAlign=middle;spacingTop=-1;spacingLeft=3;spacingRight=3;rotatable=0;labelPosition=right;points=[];portConstraint=eastwest;fontSize=18;" vertex="1" parent="3M25qD8F63HRG9UIUaZJ-60">
          <mxGeometry y="52" width="180" height="8" as="geometry" />
        </mxCell>
        <mxCell id="3M25qD8F63HRG9UIUaZJ-63" value="Header.LoToken: 3xsc7" style="text;strokeColor=none;fillColor=none;align=left;verticalAlign=middle;spacingLeft=4;spacingRight=4;overflow=hidden;rotatable=0;points=[[0,0.5],[1,0.5]];portConstraint=eastwest;fontSize=16;" vertex="1" parent="3M25qD8F63HRG9UIUaZJ-60">
          <mxGeometry y="60" width="180" height="26" as="geometry" />
        </mxCell>
        <mxCell id="3M25qD8F63HRG9UIUaZJ-65" value="" style="curved=1;endArrow=classic;html=1;rounded=1;fontSize=16;fontColor=#FF0000;strokeColor=default;entryX=1;entryY=0.25;entryDx=0;entryDy=0;exitX=-0.007;exitY=0.567;exitDx=0;exitDy=0;exitPerimeter=0;" edge="1" parent="1" source="3M25qD8F63HRG9UIUaZJ-57" target="3M25qD8F63HRG9UIUaZJ-39">
          <mxGeometry width="50" height="50" relative="1" as="geometry">
            <mxPoint x="1000" y="350" as="sourcePoint" />
            <mxPoint x="710" y="80" as="targetPoint" />
            <Array as="points">
              <mxPoint x="930" y="120" />
              <mxPoint x="660" y="80" />
            </Array>
          </mxGeometry>
        </mxCell>
        <mxCell id="3M25qD8F63HRG9UIUaZJ-67" value="4.返回请求" style="swimlane;fontStyle=1;align=center;verticalAlign=middle;childLayout=stackLayout;horizontal=1;startSize=26;horizontalStack=0;resizeParent=1;resizeParentMax=0;resizeLast=0;collapsible=1;marginBottom=0;fontSize=16;fillColor=#FFFFFF;rounded=0;glass=0;sketch=0;swimlaneFillColor=default;fontColor=#FF0000;" vertex="1" parent="1">
          <mxGeometry x="827" y="216" width="180" height="86" as="geometry" />
        </mxCell>
        <mxCell id="3M25qD8F63HRG9UIUaZJ-68" value=" 请求名称: A" style="text;strokeColor=none;fillColor=none;align=left;verticalAlign=middle;spacingLeft=4;spacingRight=4;overflow=hidden;rotatable=0;points=[[0,0.5],[1,0.5]];portConstraint=eastwest;fontSize=16;" vertex="1" parent="3M25qD8F63HRG9UIUaZJ-67">
          <mxGeometry y="26" width="180" height="26" as="geometry" />
        </mxCell>
        <mxCell id="3M25qD8F63HRG9UIUaZJ-69" value="" style="line;strokeWidth=1;fillColor=none;align=left;verticalAlign=middle;spacingTop=-1;spacingLeft=3;spacingRight=3;rotatable=0;labelPosition=right;points=[];portConstraint=eastwest;fontSize=18;" vertex="1" parent="3M25qD8F63HRG9UIUaZJ-67">
          <mxGeometry y="52" width="180" height="8" as="geometry" />
        </mxCell>
        <mxCell id="3M25qD8F63HRG9UIUaZJ-70" value="响应: abc" style="text;strokeColor=none;fillColor=none;align=left;verticalAlign=middle;spacingLeft=4;spacingRight=4;overflow=hidden;rotatable=0;points=[[0,0.5],[1,0.5]];portConstraint=eastwest;fontSize=16;" vertex="1" parent="3M25qD8F63HRG9UIUaZJ-67">
          <mxGeometry y="60" width="180" height="26" as="geometry" />
        </mxCell>
      </root>
    </mxGraphModel>
  </diagram>
</mxfile>
